<?xml version="1.0" standalone="no"?>
<svg viewBox="0 0 200 200" xmlns="http://www.w3.org/2000/svg">
    <path fill="#8A3FFC"
          d="M34.9,-56.6C45.7,-47.3,55.2,-38.5,60.5,-27.5C65.8,-16.5,66.8,-3.4,64.2,8.6C61.6,20.6,55.2,31.5,48.1,44.2C41,56.9,33.1,71.4,21.4,76.5C9.7,81.6,-5.9,77.3,-22,73.3C-38.2,69.4,-55,65.8,-67.6,56C-80.2,46.1,-88.7,30.1,-89.5,13.8C-90.4,-2.4,-83.6,-18.8,-74.7,-32.4C-65.8,-45.9,-54.6,-56.8,-41.8,-65.2C-29,-73.6,-14.5,-79.5,-1.2,-77.6C12,-75.7,24.1,-66,34.9,-56.6Z"
          transform="translate(100 100)"/>
</svg>
